<svg width="30" height="31" viewBox="0 0 30 31" fill="none" xmlns="http://www.w3.org/2000/svg">
<g clip-path="url(#clip0_1_300)">
<path d="M15 0.5C6.7285 0.5 0 7.22914 0 15.5C0 23.7709 6.7285 30.5 15 30.5C23.2715 30.5 30 23.7709 30 15.5C30 7.22914 23.2715 0.5 15 0.5ZM20.9631 16.0255L12.2132 21.6505C12.1106 21.717 11.9922 21.75 11.875 21.75C11.7725 21.75 11.6687 21.7244 11.576 21.6737C11.3745 21.5639 11.25 21.3539 11.25 21.125V9.875C11.25 9.64613 11.3745 9.43613 11.576 9.32627C11.7737 9.21764 12.0215 9.22432 12.2132 9.34947L20.9631 14.9745C21.1414 15.0892 21.25 15.2876 21.25 15.5C21.25 15.7124 21.1414 15.9107 20.9631 16.0255Z" fill="white"/>
</g>
<defs>
<clipPath id="clip0_1_300">
<rect width="30" height="30" fill="white" transform="translate(0 0.5)"/>
</clipPath>
</defs>
</svg>
